<?xml version="1.0" standalone="no"?>
<!DOCTYPE svg PUBLIC "-//W3C//DTD SVG 20010904//EN"
 "http://www.w3.org/TR/2001/REC-SVG-20010904/DTD/svg10.dtd">
<svg version="1.0" xmlns="http://www.w3.org/2000/svg"
 width="500.000000pt" height="500.000000pt" viewBox="0 0 500.000000 500.000000"
 preserveAspectRatio="xMidYMid meet">

<g transform="translate(0.000000,500.000000) scale(0.100000,-0.100000)"
fill="#000000" stroke="none">
<path d="M2258 4794 c-4 -4 -38 -11 -75 -15 -66 -8 -128 -18 -223 -37 -25 -4
-55 -13 -66 -20 -12 -6 -24 -9 -28 -5 -3 3 -36 -6 -73 -21 -101 -42 -105 -43
-143 -56 -42 -15 -79 -29 -102 -41 -10 -5 -25 -9 -33 -9 -8 0 -15 -4 -15 -10
0 -5 -9 -10 -19 -10 -11 0 -21 -4 -23 -8 -1 -4 -28 -20 -58 -35 -30 -15 -77
-41 -105 -58 -27 -16 -58 -32 -67 -36 -10 -3 -18 -9 -18 -14 0 -5 -6 -9 -13
-9 -7 0 -23 -9 -35 -20 -12 -11 -24 -20 -27 -20 -30 0 -380 -334 -430 -410
-12 -19 -34 -46 -49 -59 -14 -14 -26 -28 -26 -33 0 -4 -18 -31 -40 -60 -22
-29 -40 -59 -40 -65 0 -7 -4 -13 -10 -13 -5 0 -10 -6 -10 -14 0 -8 -4 -16 -9
-18 -7 -3 -104 -196 -159 -319 -47 -103 -111 -328 -141 -494 -41 -225 -34
-621 14 -815 3 -14 11 -45 17 -70 6 -25 26 -90 44 -145 18 -55 40 -125 49
-155 22 -70 98 -229 145 -300 20 -30 42 -70 49 -88 8 -17 17 -32 22 -32 5 0 9
-7 9 -15 0 -9 9 -25 20 -37 11 -12 20 -30 20 -40 0 -10 4 -18 10 -18 15 0 49
-41 44 -54 -2 -6 17 -29 43 -51 27 -22 50 -44 52 -50 8 -20 296 -298 307 -296
11 1 26 -13 71 -64 10 -12 14 -15 9 -8 -6 9 -3 13 8 13 9 0 16 -4 16 -8 0 -4
24 -21 53 -36 28 -16 81 -47 117 -70 36 -23 77 -48 92 -55 15 -8 25 -18 22
-22 -3 -5 2 -6 10 -3 9 4 18 -1 22 -10 3 -9 10 -14 14 -11 13 8 40 -6 33 -18
-4 -6 0 -8 10 -4 10 3 24 4 33 0 13 -5 13 -8 2 -15 -9 -7 -6 -8 10 -5 29 7 54
-2 46 -15 -4 -6 1 -8 14 -4 13 5 72 -10 157 -39 149 -49 225 -66 385 -87 130
-16 459 -16 560 0 41 7 104 17 140 23 129 20 322 72 372 99 10 6 23 10 30 10
16 0 282 132 286 142 2 4 12 8 23 8 10 0 19 5 19 10 0 6 8 10 18 10 10 0 24 9
32 20 8 11 22 20 32 20 10 0 18 5 18 10 0 6 7 10 15 10 8 0 15 5 15 10 0 6 6
10 13 10 8 0 22 9 32 20 10 11 22 20 27 20 5 0 30 17 54 37 71 60 364 346 364
356 0 5 18 29 40 54 22 25 40 51 40 57 0 6 9 17 20 24 11 7 20 19 20 27 0 8 5
15 10 15 6 0 10 7 10 15 0 8 5 15 10 15 6 0 10 9 10 19 0 11 4 21 8 23 5 2 24
32 43 68 18 36 47 88 64 115 17 28 35 61 41 75 6 14 21 45 33 68 11 24 21 52
21 62 0 11 4 21 8 24 5 3 14 31 22 63 7 32 23 93 36 135 42 138 54 206 66 376
15 222 12 354 -13 547 -21 163 -32 213 -67 320 -51 153 -223 534 -250 555 -4
3 -13 17 -21 33 -8 15 -18 27 -23 27 -4 0 -8 6 -8 13 0 7 -8 22 -18 33 -10 10
-28 34 -42 53 -74 105 -405 432 -475 469 -14 7 -25 17 -25 22 0 6 -6 10 -13
10 -7 0 -22 8 -33 18 -25 22 -74 52 -96 59 -10 3 -18 9 -18 14 0 5 -6 9 -12 9
-7 0 -24 9 -38 20 -14 11 -33 20 -42 20 -10 0 -18 5 -18 10 0 6 -9 10 -20 10
-11 0 -20 5 -20 10 0 6 -9 10 -20 10 -11 0 -20 5 -20 10 0 6 -6 10 -13 10 -7
0 -32 9 -55 20 -22 11 -45 20 -49 20 -5 0 -26 9 -48 20 -22 11 -49 20 -61 20
-12 0 -27 7 -34 15 -7 9 -18 14 -25 12 -6 -3 -22 1 -36 9 -13 7 -36 13 -51 14
-15 0 -29 4 -32 9 -3 5 -23 11 -43 14 -21 3 -63 11 -93 17 -30 6 -89 16 -130
21 -95 12 -513 23 -522 13z m467 -273 c39 -5 93 -15 120 -21 28 -6 71 -14 98
-17 26 -3 47 -9 47 -14 0 -5 15 -9 34 -9 19 0 38 -4 41 -10 3 -5 19 -10 36
-10 16 0 29 -4 29 -10 0 -5 9 -10 20 -10 11 0 28 -4 38 -9 16 -8 47 -21 95
-40 58 -23 203 -97 210 -108 4 -7 12 -13 17 -13 5 0 30 -15 56 -32 25 -18 53
-37 63 -43 9 -5 32 -23 52 -40 20 -16 59 -48 85 -70 45 -36 177 -174 226 -235
11 -14 35 -42 54 -62 19 -20 34 -40 34 -42 0 -3 15 -26 34 -50 19 -25 53 -78
75 -118 23 -40 51 -89 63 -108 45 -75 78 -143 78 -161 0 -10 5 -19 10 -19 6 0
10 -11 10 -24 0 -14 5 -28 10 -31 6 -3 10 -17 10 -30 0 -13 5 -27 10 -30 6 -3
10 -19 10 -35 0 -16 5 -32 10 -35 6 -3 10 -19 10 -35 0 -16 5 -32 10 -35 6 -3
10 -21 10 -39 0 -17 4 -36 9 -41 5 -6 12 -35 15 -65 3 -30 8 -75 12 -98 l6
-44 -38 26 c-22 14 -48 30 -59 35 -12 5 -27 16 -34 25 -7 9 -20 16 -27 16 -8
0 -14 4 -14 9 0 5 -16 16 -35 25 -19 9 -40 22 -47 29 -13 11 -27 20 -82 51
-11 6 -29 19 -40 29 -11 9 -26 17 -33 17 -7 0 -13 4 -13 8 0 5 -12 15 -27 23
-16 8 -32 17 -38 22 -44 33 -206 137 -214 137 -6 0 -11 4 -11 8 0 5 -12 15
-27 23 -16 8 -37 22 -47 32 -11 9 -26 17 -33 17 -7 0 -13 5 -13 10 0 6 -5 10
-11 10 -5 0 -37 18 -69 40 -32 22 -64 40 -69 40 -6 0 -11 4 -11 8 0 4 -14 17
-32 27 -69 43 -152 96 -238 154 -30 20 -67 42 -82 50 -16 8 -28 18 -28 23 0 4
-6 8 -13 8 -7 0 -22 8 -33 18 -10 9 -31 23 -46 31 -16 8 -28 18 -28 23 0 4 -9
8 -20 8 -11 0 -20 4 -20 8 0 5 -12 15 -27 23 -16 8 -37 22 -47 32 -11 9 -26
17 -33 17 -7 0 -13 4 -13 8 0 5 -12 15 -27 23 -16 8 -63 38 -106 67 -43 28
-80 52 -83 52 -3 0 -14 9 -26 20 -12 11 -28 20 -35 20 -7 0 -13 4 -13 8 0 5
-12 15 -27 23 -16 7 -60 35 -100 61 -40 27 -77 48 -83 48 -5 0 -10 5 -10 10 0
6 -7 10 -15 10 -8 0 -15 5 -15 10 0 6 -6 10 -13 10 -7 0 -23 9 -35 20 -12 11
-25 20 -30 20 -4 0 -17 8 -28 18 -19 16 -31 23 -86 55 -13 6 -26 15 -29 20 -3
4 -30 23 -60 42 -30 19 -58 38 -64 42 -5 4 -22 14 -37 22 -16 8 -28 18 -28 23
0 4 -10 8 -22 8 -21 0 -21 1 6 15 15 8 39 15 52 15 12 0 26 5 29 10 3 6 21 10
40 10 19 0 37 5 40 10 3 6 28 10 55 10 27 0 52 5 55 10 3 6 34 10 68 11 34 0
71 4 82 9 25 11 356 5 450 -9z m-1475 -2006 c-1 -1066 -4 -1615 -11 -1615 -5
0 -28 17 -50 38 -23 20 -53 46 -67 57 -66 50 -219 217 -270 292 -14 21 -28 40
-31 43 -3 3 -10 12 -16 21 -5 9 -23 36 -40 60 -43 63 -45 67 -100 176 -27 54
-53 100 -57 101 -5 2 -8 10 -8 18 0 8 -5 24 -12 37 -24 48 -28 57 -28 77 0 11
-4 20 -10 20 -5 0 -10 14 -10 30 0 17 -4 30 -10 30 -5 0 -10 13 -10 29 0 17
-4 32 -9 35 -5 3 -11 23 -15 43 -3 21 -8 56 -11 78 -4 22 -10 49 -15 60 -16
35 -22 135 -22 365 -1 231 7 358 23 375 5 5 9 26 9 46 0 21 5 41 10 44 6 3 10
24 10 46 0 21 5 39 10 39 6 0 10 13 10 29 0 17 5 33 10 36 6 3 10 17 10 30 0
13 5 27 10 30 6 3 10 17 10 31 0 13 5 24 10 24 6 0 10 11 10 24 0 14 5 28 10
31 6 3 10 15 10 26 0 10 5 19 10 19 6 0 10 6 10 14 0 12 59 135 70 146 10 10
31 46 41 72 6 14 17 29 25 32 8 3 14 12 14 19 0 8 9 22 20 32 11 10 20 23 20
30 0 6 14 24 30 40 17 16 30 32 30 37 0 13 28 43 167 184 73 73 146 141 163
150 16 10 30 22 30 26 0 4 5 8 10 8 7 0 10 -521 10 -1615z m800 847 c0 -5 12
-15 28 -23 15 -8 36 -22 46 -31 11 -10 26 -18 33 -18 7 0 13 -4 13 -10 0 -5 7
-10 15 -10 8 0 15 -4 15 -10 0 -5 4 -10 10 -10 5 0 80 -46 167 -103 87 -56
170 -108 186 -116 15 -8 27 -18 27 -23 0 -4 5 -8 11 -8 5 0 37 -18 69 -40 32
-22 64 -40 69 -40 6 0 11 -4 11 -10 0 -5 4 -10 9 -10 6 0 102 -61 215 -135
114 -74 209 -135 211 -135 3 0 11 -5 18 -10 7 -6 41 -29 76 -51 l64 -40 -51
-35 c-28 -19 -56 -34 -62 -34 -5 0 -10 -4 -10 -10 0 -5 -6 -10 -13 -10 -7 0
-23 -9 -35 -20 -12 -11 -24 -20 -27 -20 -4 0 -41 -24 -83 -53 -42 -28 -89 -58
-104 -66 -16 -8 -28 -18 -28 -23 0 -4 -6 -8 -13 -8 -7 0 -22 -8 -33 -17 -25
-23 -74 -53 -96 -60 -10 -3 -18 -9 -18 -14 0 -5 -6 -9 -13 -9 -7 0 -22 -8 -33
-17 -11 -10 -30 -24 -42 -30 -12 -7 -32 -19 -44 -25 -12 -7 -31 -21 -42 -30
-11 -10 -25 -18 -32 -18 -7 0 -14 -4 -16 -9 -1 -5 -17 -17 -34 -27 -18 -11
-57 -34 -87 -52 -30 -17 -60 -39 -67 -47 -7 -8 -17 -15 -22 -15 -5 0 -49 -27
-98 -60 -49 -33 -94 -60 -100 -60 -5 0 -10 -4 -10 -10 0 -5 -6 -10 -13 -10 -7
0 -22 -8 -33 -17 -11 -10 -30 -24 -42 -31 l-22 -12 0 845 c0 744 2 845 15 845
8 0 15 -4 15 -8z m2420 -1116 c0 -19 -4 -38 -10 -41 -5 -3 -10 -28 -10 -55 0
-27 -4 -52 -10 -55 -5 -3 -10 -24 -10 -45 0 -21 -4 -42 -10 -45 -5 -3 -10 -19
-10 -35 0 -16 -4 -32 -10 -35 -5 -3 -10 -17 -10 -30 0 -13 -4 -27 -10 -30 -5
-3 -10 -17 -10 -30 0 -13 -4 -27 -10 -30 -5 -3 -10 -17 -10 -31 0 -13 -4 -24
-10 -24 -5 0 -10 -6 -10 -14 0 -21 -101 -219 -149 -294 -23 -34 -41 -67 -41
-72 0 -4 -4 -10 -8 -12 -5 -1 -22 -23 -39 -48 -17 -25 -41 -55 -52 -67 -12
-12 -21 -26 -21 -30 0 -11 -247 -253 -292 -286 -20 -15 -42 -32 -50 -39 -8 -7
-21 -17 -30 -23 -9 -5 -37 -25 -62 -42 -26 -18 -49 -33 -51 -33 -2 0 -23 -13
-47 -29 -60 -40 -177 -101 -194 -101 -8 0 -14 -4 -14 -10 0 -5 -9 -10 -19 -10
-11 0 -23 -4 -26 -10 -3 -5 -17 -10 -31 -10 -13 0 -24 -4 -24 -10 0 -5 -11
-10 -24 -10 -14 0 -28 -4 -31 -10 -3 -5 -17 -10 -30 -10 -13 0 -27 -4 -30 -10
-3 -5 -19 -10 -35 -10 -16 0 -32 -5 -35 -10 -3 -6 -21 -10 -40 -10 -19 0 -37
-4 -40 -10 -3 -5 -23 -10 -44 -10 -20 0 -41 -4 -46 -9 -25 -23 -514 -33 -640
-13 -38 6 -88 14 -110 17 -22 4 -49 10 -60 15 -11 5 -36 11 -55 15 -19 3 -49
8 -67 11 -22 4 -30 10 -26 20 3 8 11 14 19 14 8 0 14 5 14 10 0 6 6 10 13 10
7 0 23 9 35 20 12 11 23 20 26 20 6 0 389 251 396 259 3 3 17 12 33 20 15 8
27 18 27 23 0 4 8 8 18 8 10 0 24 9 32 20 8 11 22 20 32 20 10 0 18 4 18 8 0
5 12 15 28 23 15 8 36 22 46 32 11 9 26 17 33 17 7 0 13 5 13 10 0 6 4 10 10
10 5 0 62 35 125 78 64 42 125 82 136 88 10 6 27 17 36 25 10 8 30 21 46 29
15 7 27 17 27 22 0 4 6 8 13 8 7 0 22 8 33 18 10 9 31 23 47 31 15 8 27 18 27
23 0 4 4 8 10 8 8 0 168 100 205 127 6 5 48 33 94 63 46 30 89 59 95 65 7 5
22 16 34 23 12 6 32 18 44 25 12 6 31 20 42 30 11 9 26 17 33 17 7 0 13 5 13
10 0 6 6 10 13 10 7 0 23 9 35 20 12 11 24 20 27 20 3 0 46 27 96 60 50 33 94
60 98 60 4 0 16 9 26 20 10 11 24 20 32 20 7 0 16 7 19 15 4 8 11 15 17 15 6
0 37 18 68 40 32 22 61 40 67 40 5 0 17 9 27 20 10 11 23 20 30 20 6 0 20 8
31 18 10 9 31 23 47 31 15 8 27 18 27 23 0 4 6 8 13 8 6 0 23 9 37 20 35 27
40 25 40 -14z"/>
<path d="M1049 4333 c-13 -16 -12 -17 4 -4 9 7 17 15 17 17 0 8 -8 3 -21 -13z"/>
<path d="M4346 1191 c-10 -11 -16 -25 -14 -31 2 -6 11 3 21 20 21 34 18 39 -7
11z"/>
<path d="M4294 1118 c-40 -46 -50 -64 -20 -38 25 23 52 60 43 60 -2 0 -12 -10
-23 -22z"/>
<path d="M4140 944 c-41 -42 -63 -69 -49 -60 23 15 136 136 127 136 -2 0 -37
-34 -78 -76z"/>
</g>
</svg>
